<svg xmlns="http://www.w3.org/2000/svg" width="163.706" height="94.224" viewBox="0 0 163.706 94.224">
  <g id="Group_165" data-name="Group 165" transform="translate(-1708.479 -844.645)">
    <path id="Path_95" data-name="Path 95" d="M1708.479,938.814c15.3-15.252,29.354-29.432,43.647-43.368,2.929-2.857,3-4.373.028-7.272-14.286-13.943-28.322-28.142-42.412-42.215.837-1.984,2.433-1.13,3.609-1.136,12.724-.069,25.449.047,38.17-.11a9.034,9.034,0,0,1,7.168,2.984q20.214,20.479,40.713,40.674c2.732,2.676,2.814,4.109.029,6.834-13.714,13.412-27.188,27.069-40.777,40.611-1.336,1.331-2.386,3.04-4.747,3.03C1739.3,938.782,1724.691,938.814,1708.479,938.814Z" fill="#fff"/>
    <path id="Path_96" data-name="Path 96" d="M1779.035,844.78c15.949,0,30.21.05,44.47-.052a6.585,6.585,0,0,1,5.045,2.381c13.952,14.008,27.9,28.024,41.972,41.907,2.2,2.166,2.232,3.367.014,5.554-14.078,13.88-28.021,27.9-41.974,41.9a6.582,6.582,0,0,1-5.039,2.394c-14.263-.1-28.527-.052-42.823-.052-.569-2.228,1.305-2.806,2.248-3.757,13.236-13.34,26.462-26.691,39.893-39.834,2.745-2.686,2.787-4.132.014-6.844C1808.488,874.329,1794.339,860.054,1779.035,844.78Z" fill="#ff060a"/>
  </g>
</svg>
