<?xml version="1.0" encoding="utf-8"?>
<!-- Generator: Adobe Illustrator 23.0.1, SVG Export Plug-In . SVG Version: 6.00 Build 0)  -->
<svg version="1.1" id="Layer_1" xmlns="http://www.w3.org/2000/svg" xmlns:xlink="http://www.w3.org/1999/xlink" x="0px" y="0px"
	 viewBox="0 0 50 15" style="enable-background:new 0 0 50 15;" xml:space="preserve">
<style type="text/css">
	.st0{fill:#FFFFFF;}
	.st1{fill:#ED2124;}
</style>
<g>
	<path class="st0" d="M11.8,1.9v11.7H9.1V8.9H3.8v4.8H1.1V1.9h2.7v4.6h5.3V1.9H11.8z"/>
	<path class="st0" d="M23.2,9.9h-6.8c0.1,0.6,0.4,1,0.9,1.3c0.5,0.3,1,0.5,1.7,0.5c0.5,0,0.9-0.1,1.2-0.2c0.4-0.1,0.7-0.4,1-0.7
		l1.4,1.5c-0.9,1-2.1,1.5-3.7,1.5c-1,0-1.9-0.2-2.7-0.6c-0.8-0.4-1.4-0.9-1.8-1.7c-0.4-0.7-0.6-1.5-0.6-2.4c0-0.9,0.2-1.7,0.6-2.4
		c0.4-0.7,1-1.3,1.7-1.7c0.7-0.4,1.6-0.6,2.5-0.6c0.9,0,1.7,0.2,2.4,0.6c0.7,0.4,1.3,0.9,1.7,1.6c0.4,0.7,0.6,1.5,0.6,2.5
		C23.3,9.2,23.3,9.5,23.2,9.9z M17.1,7c-0.4,0.3-0.6,0.8-0.7,1.4h4.4c-0.1-0.6-0.3-1-0.7-1.4s-0.9-0.5-1.5-0.5
		C18,6.5,17.5,6.7,17.1,7z"/>
	<path class="st0" d="M25,1.2h2.6v12.5H25V1.2z"/>
	<path class="st0" d="M30.1,1.2h2.6v12.5h-2.6V1.2z"/>
	<path class="st0" d="M36.9,13.2c-0.8-0.4-1.3-0.9-1.8-1.7c-0.4-0.7-0.6-1.5-0.6-2.4s0.2-1.7,0.6-2.4c0.4-0.7,1-1.3,1.8-1.7
		c0.8-0.4,1.6-0.6,2.6-0.6c1,0,1.8,0.2,2.6,0.6c0.7,0.4,1.3,0.9,1.8,1.7c0.4,0.7,0.6,1.5,0.6,2.4s-0.2,1.7-0.6,2.4
		c-0.4,0.7-1,1.3-1.8,1.7c-0.7,0.4-1.6,0.6-2.6,0.6C38.5,13.8,37.6,13.6,36.9,13.2z M41.1,11c0.4-0.5,0.6-1.1,0.6-1.8
		c0-0.8-0.2-1.4-0.6-1.8c-0.4-0.5-1-0.7-1.7-0.7c-0.7,0-1.2,0.2-1.7,0.7c-0.4,0.5-0.7,1.1-0.7,1.8c0,0.8,0.2,1.4,0.7,1.8
		c0.4,0.5,1,0.7,1.7,0.7C40.1,11.7,40.6,11.4,41.1,11z"/>
	<path class="st1" d="M46.2,13.4c-0.3-0.3-0.5-0.7-0.5-1.1c0-0.4,0.2-0.8,0.5-1.1c0.3-0.3,0.7-0.4,1.2-0.4s0.9,0.1,1.2,0.4
		c0.3,0.3,0.5,0.6,0.5,1.1c0,0.4-0.2,0.8-0.5,1.1c-0.3,0.3-0.7,0.4-1.1,0.4C46.9,13.8,46.5,13.7,46.2,13.4z"/>
	<polygon class="st0" points="45.8,1.9 48.9,1.9 48.4,9.6 46.3,9.6 	"/>
</g>
</svg>
