<?xml version="1.0" encoding="utf-8"?>
<!-- Generator: Adobe Illustrator 23.0.1, SVG Export Plug-In . SVG Version: 6.00 Build 0)  -->
<svg version="1.1" id="Layer_1" xmlns="http://www.w3.org/2000/svg" xmlns:xlink="http://www.w3.org/1999/xlink" x="0px" y="0px"
	 viewBox="0 0 20 50" style="enable-background:new 0 0 20 50;" xml:space="preserve">
<style type="text/css">
	.st0{fill:#ED2224;}
	.st1{fill:#FFFFFF;}
</style>
<g>
	<path class="st0" d="M5.4,46.4c-1.2-1.2-1.8-2.6-1.8-4.4c0-1.7,0.6-3.1,1.8-4.3C6.6,36.6,8.1,36,10,36c1.9,0,3.4,0.6,4.6,1.7
		c1.2,1.2,1.8,2.6,1.8,4.3c0,1.7-0.6,3.2-1.8,4.4c-1.2,1.2-2.8,1.8-4.6,1.8C8.2,48.2,6.6,47.6,5.4,46.4z"/>
	<polygon class="st1" points="2,1.8 18,1.8 15.4,32.7 4.6,32.7 	"/>
	<path d="M5.4,39.3"/>
</g>
</svg>
